# xmcd CD database file
#
# Track frame offsets:
#	187
#	16615
#	32667
#	44657
#	61540
#	76552
#	99075
#	118110
#	133147
#	150485
#	179210
#	196602
#	205945
#	225560
#
# Disc length: 3296 seconds
#
# Revision: 2
# Processed by: cddbd v1.5.2PL0 Copyright (c) Steve Scherf et al.
# Submitted via: CDex 1.77
#
DISCID=a40cde0e
DTITLE=Various Artist - Jazz Standards Vocal (Verve J33J-20144)
DYEAR=1985
DGENRE=Jazz
TTITLE0=My Funnny Valentine [Anita O'Day]
TTITLE1=Sing, Sing, Sing [Anita O'Day]
TTITLE2=Side by Side [Gary Crosby]
TTITLE3=Blue Moon [Mel Torme]
TTITLE4=Satin Doll [Ella Fitzgerald]
TTITLE5=Summertime [Ella Fitzgerald and Louis Armstrong]
TTITLE6=Manhattan [Blossom Dearie]
TTITLE7=Tea for Two [Blossom Dearie]
TTITLE8=Fly me to the Moon [Anita O'Day]
TTITLE9=Body and Soul [Billie Holiday]
TTITLE10=But not for me [Billie Holiday]
TTITLE11=All of me [Billie Holiday]
TTITLE12=Bewitched [Toni Harper]
TTITLE13=Night and Day [Fred Astaire]
EXTD=YEAR: 1985
EXTT0=
EXTT1=
EXTT2=
EXTT3=
EXTT4=
EXTT5=
EXTT6=
EXTT7=
EXTT8=
EXTT9=
EXTT10=
EXTT11=
EXTT12=
EXTT13=
PLAYORDER=
